# xmcd
#
# Track frame offsets:
#	150
#	11942
#	29665
#	40430
#	56325
#	69637
#	79932
#	99152
#	113560
#	134422
#
# Disc length: 1967
#
# Revision: 1
# Processed by: cddbd v1.5.1PL0 Copyright (c) Steve Scherf et al.
# Submitted via: dBpowerAMP V4.0
# Normalized: r0:TRMNUM
#
DISCID=8507ad0a
DTITLE=Gold City - Goin' Home
DYEAR=1989
DGENRE=Country Gospel
TTITLE0=What a glad day
TTITLE1=Forgetfulness sea
TTITLE2=only one ship of zion
TTITLE3=so close to home
TTITLE4=Gettin' ready to leave this world
TTITLE5=look around
TTITLE6=love went deeper
TTITLE7=that's what i am
TTITLE8=under control
TTITLE9=i'm going home with Jesus
EXTD=
EXTT0=
EXTT1=
EXTT2=
EXTT3=
EXTT4=
EXTT5=
EXTT6=
EXTT7=
EXTT8=
EXTT9=
PLAYORDER=
